<svg xmlns="http://www.w3.org/2000/svg" width="46" height="21" viewBox="0 0 46 21">
    <path fill="#FFF" fill-rule="nonzero" d="M2 0h42a2 2 0 0 1 2 2v17a2 2 0 0 1-2 2H2a2 2 0 0 1-2-2V2a2 2 0 0 1 2-2zm5.028 5.878L11.116 16h1.701l4.088-10.122h-1.519a.606.606 0 0 0-.399.133.73.73 0 0 0-.224.294l-2.373 6.174c-.159.41-.292.884-.399 1.421-.065-.266-.134-.52-.206-.76a8.348 8.348 0 0 0-.228-.661l-2.38-6.174a.728.728 0 0 0-.231-.308.634.634 0 0 0-.399-.119H7.028zm12.111 0h-.987V16h1.659V9.784a8.52 8.52 0 0 0-.042-.847l5.292 6.741a.826.826 0 0 0 .287.252c.098.047.222.07.371.07h.973V5.878h-1.659v6.153c0 .135.003.281.01.437.008.157.02.317.039.48l-5.313-6.769a1.459 1.459 0 0 0-.14-.157.505.505 0 0 0-.13-.091.492.492 0 0 0-.15-.042 1.741 1.741 0 0 0-.21-.011zm18.775 5.061c0-.742-.124-1.423-.371-2.044a4.658 4.658 0 0 0-1.043-1.6 4.734 4.734 0 0 0-1.617-1.043c-.63-.25-1.328-.374-2.093-.374h-3.864V16h3.864c.765 0 1.463-.124 2.093-.371a4.666 4.666 0 0 0 1.617-1.043 4.695 4.695 0 0 0 1.043-1.603c.247-.62.371-1.302.371-2.044zm-1.925 0c0 .555-.075 1.053-.224 1.495-.15.44-.362.814-.637 1.12-.275.305-.61.54-1.005.703a3.456 3.456 0 0 1-1.333.245h-1.967V7.376h1.967c.495 0 .94.082 1.334.245.394.163.729.398 1.004.704.275.305.488.678.637 1.12.15.44.224.939.224 1.494z"/>
</svg>
