<svg xmlns="http://www.w3.org/2000/svg" width="20" height="17" viewBox="0 0 20 17">
    <g fill="none" fill-rule="evenodd">
        <path d="M0-1h20v20H0z"/>
        <path fill="#FFF" stroke="#FFF" stroke-width=".5" d="M18.795 8.287c-.048-.057-1.202-1.412-3.059-2.754a.3.3 0 1 0-.352.487 19.02 19.02 0 0 1 2.782 2.464c-.784.884-4.243 4.499-8.316 4.499-.635 0-1.553-.05-2.317-.281a.301.301 0 0 0-.175.575c.835.253 1.816.307 2.492.307 2.57 0 4.87-1.34 6.345-2.463 1.587-1.208 2.563-2.4 2.604-2.45a.3.3 0 0 0-.004-.384M3.965 11.406a.3.3 0 0 0 .353-.487c-.31-.224-.566-.406-.785-.562-1.015-.72-1.194-.848-2.014-1.875.744-.896 4.226-4.81 8.33-4.81.592 0 1.09.128 1.668.275l.062.017a.3.3 0 0 0 .149-.583l-.062-.015c-.59-.152-1.149-.295-1.816-.295-4.906 0-8.792 5.014-8.955 5.228a.3.3 0 0 0 .003.369c1.005 1.269 1.176 1.39 2.287 2.18.218.154.473.335.78.558"/>
        <path fill="#FFF" stroke="#FFF" stroke-width=".5" d="M6.544 8.48a.3.3 0 0 0 .6 0A2.676 2.676 0 0 1 9.85 5.777a.3.3 0 0 0 0-.601A3.27 3.27 0 0 0 6.544 8.48M12.555 8.18a2.676 2.676 0 0 1-2.705 2.705.3.3 0 0 0 0 .601 3.271 3.271 0 0 0 3.306-3.306.3.3 0 0 0-.601 0M17.273.752a.3.3 0 0 0-.425.005L2.422 15.483a.301.301 0 0 0 .43.421L17.277 1.177a.3.3 0 0 0-.005-.425"/>
    </g>
</svg>
