<svg xmlns="http://www.w3.org/2000/svg" xmlns:xlink="http://www.w3.org/1999/xlink" width="42" height="16" viewBox="0 0 42 16">
    <defs>
        <path id="a" d="M.05.006h10.74v10.742H.05z"/>
    </defs>
    <g fill="none" fill-rule="evenodd">
        <text fill="#FFF" font-family="Roboto-Medium, Roboto" font-size="3" font-weight="400">
            <tspan x="0" y="15">TM</tspan>
        </text>
        <g transform="translate(30.98 .347)">
            <mask id="b" fill="#fff">
                <use xlink:href="#a"/>
            </mask>
            <path fill="#FFF" d="M2.243.698L.05 2.894l7.826.025.026 7.83 2.198-2.2a2.357 2.357 0 0 0 .69-1.675L10.768.18a.153.153 0 0 0-.153-.153L3.919.007a2.357 2.357 0 0 0-1.676.69" mask="url(#b)"/>
        </g>
        <path fill="#FFF" d="M4.524 6.16h2.07l1.728 6.603h.034l1.66-6.604h1.967l1.592 6.604h.034l1.796-6.604h1.985l-2.772 8.845h-2.001l-1.643-6.57h-.034l-1.625 6.57H7.26zM24.52 9.803a3.148 3.148 0 0 0-.196-.89 2.377 2.377 0 0 0-.445-.744 2.21 2.21 0 0 0-.684-.513 2.02 2.02 0 0 0-.898-.196c-.343 0-.654.06-.933.18-.28.119-.519.284-.718.495-.2.212-.36.46-.48.745a2.59 2.59 0 0 0-.196.923h4.55zm-4.55 1.284c0 .342.048.673.145.992.097.32.242.599.436.838.194.24.44.43.736.573.297.143.65.214 1.06.214.571 0 1.03-.122 1.378-.368.348-.245.608-.613.779-1.103h1.847a3.679 3.679 0 0 1-1.437 2.233c-.353.256-.75.45-1.189.581-.44.131-.898.197-1.377.197-.696 0-1.312-.114-1.848-.342a3.815 3.815 0 0 1-1.36-.958c-.37-.41-.65-.901-.838-1.471a5.979 5.979 0 0 1-.283-1.883c0-.627.1-1.223.3-1.788.2-.564.485-1.06.855-1.488.37-.428.819-.767 1.343-1.018.525-.25 1.118-.376 1.78-.376.695 0 1.32.145 1.873.436.553.29 1.012.676 1.377 1.155s.63 1.03.796 1.65c.165.623.208 1.264.128 1.926H19.97zM34.284 9.803a3.148 3.148 0 0 0-.196-.89 2.377 2.377 0 0 0-.445-.744 2.208 2.208 0 0 0-.685-.513 2.02 2.02 0 0 0-.898-.196c-.342 0-.653.06-.932.18-.28.119-.52.284-.719.495-.2.212-.359.46-.479.745s-.185.593-.196.923h4.55zm-4.55 1.284c0 .342.048.673.145.992.097.32.242.599.436.838.194.24.44.43.736.573.296.143.65.214 1.06.214.57 0 1.03-.122 1.378-.368.348-.245.607-.613.778-1.103h1.848a3.679 3.679 0 0 1-1.437 2.233c-.354.256-.75.45-1.19.581-.438.131-.897.197-1.376.197-.696 0-1.312-.114-1.848-.342a3.815 3.815 0 0 1-1.36-.958c-.371-.41-.65-.901-.839-1.471a5.976 5.976 0 0 1-.282-1.883c0-.627.1-1.223.3-1.788.199-.564.484-1.06.855-1.488.37-.428.818-.767 1.343-1.018.524-.25 1.118-.376 1.78-.376.695 0 1.32.145 1.873.436.553.29 1.012.676 1.377 1.155s.63 1.03.795 1.65c.166.623.208 1.264.129 1.926h-6.501z"/>
    </g>
</svg>
