<svg xmlns="http://www.w3.org/2000/svg" xmlns:xlink="http://www.w3.org/1999/xlink" width="146" height="30" viewBox="0 0 146 30">
    <defs>
        <path id="a" d="M0 29.816h145.932V.022H0z"/>
    </defs>
    <g fill="none" fill-rule="evenodd">
        <path fill="#FEFEFE" d="M102.001 14.764h4.495v4.317l3.888-4.317h6.187l-4.757 5.35 4.963 9.236h-5.524l-2.87-5.492-1.887 2.168v3.324h-4.495zM84.78 14.764h4.077l6.577 8.155v-8.155h4.376V29.35h-4.376l-6.28-7.742.005 7.742h-4.38zM0 14.757v14.575h10.92v-3.626H4.504v-1.831h5.322v-3.66H4.505v-1.796h6.414v-3.662z"/>
        <g transform="translate(0 .162)">
            <path fill="#FEFEFE" d="M58.938 26.035h2.292c.774 0 1.32-.138 1.637-.413.318-.274.477-.643.477-1.106 0-.43-.158-.778-.472-1.04-.314-.26-.864-.391-1.652-.391h-2.282v2.95zm0-5.722h1.954c.701 0 1.19-.12 1.464-.363.275-.24.411-.59.411-1.047 0-.424-.136-.756-.41-.993-.275-.24-.753-.358-1.435-.358h-1.984v2.761zm-4.535-5.711h8.415c1.403 0 2.48.348 3.23 1.042.75.695 1.127 1.557 1.127 2.584 0 .86-.268 1.598-.804 2.214-.36.412-.88.735-1.569.974 1.045.25 1.814.683 2.308 1.297.493.611.74 1.381.74 2.309 0 .754-.177 1.433-.527 2.037-.35.601-.831 1.079-1.439 1.427-.377.221-.946.404-1.707.503-1.011.132-1.683.199-2.014.199h-7.76V14.602zM77.32 23.61l-1.606-5.233-1.589 5.234h3.195zm.932 3.15H73.15l-.721 2.428H67.85l5.468-14.574h4.903l5.467 14.574h-4.7l-.736-2.428z"/>
            <mask id="b" fill="#fff">
                <use xlink:href="#a"/>
            </mask>
            <path fill="#FEFEFE" d="M29.161 29.188h4.504V14.602H29.16zM52.204 14.602h-5.898l-2.264 7.305-2.28-7.305H35.85v14.586h4.513v-7.341l2 7.34h3.333l2.003-7.336v7.337H52.215V14.602zM28.013 26.605c-.004-.004-.005-.01-.008-.013l-.015-.014-.012-.008-2.877-2.877a2.996 2.996 0 0 1-.656-1.85 2.95 2.95 0 0 1 .836-2.043l2.704-2.703.015-.014a.141.141 0 0 0 .035-.091.14.14 0 0 0-.033-.088c-.002 0-.002-.002-.002-.004l-.015-.014-.003-.002-2.98-2.977a.14.14 0 0 0-.092-.035.144.144 0 0 0-.095.038l-2.676 2.678-1.734 1.733c.734.732 1.24 1.24 1.24 1.24.83.92.963 1.503.963 2.323 0 1.028-.417 1.692-1.151 2.424l-1.06 1.06 4.418 4.413a.136.136 0 0 0 .181 0 7156.798 7156.798 0 0 0 3.011-3.01.138.138 0 0 0 .033-.088.137.137 0 0 0-.027-.078" mask="url(#b)"/>
            <path fill="#FEFEFE" d="M21.155 19.803l-5.9-5.896a.139.139 0 0 0-.092-.035.139.139 0 0 0-.09.035l-2.99 2.99a.436.436 0 0 0-.02.02.136.136 0 0 0-.034.087c0 .03.012.056.028.079l.008.013.014.014c.004.004.009.005.013.008l2.877 2.876c-.059-.07 0 0 0 0 .368.44.657 1.14.655 1.851a2.948 2.948 0 0 1-.836 2.043l-2.703 2.703a.14.14 0 0 0-.05.105c0 .034.013.064.033.088l.002.003.015.016.003.001 2.98 2.977a.14.14 0 0 0 .092.035.14.14 0 0 0 .094-.038L17.93 27.1l3.056-3.054c.655-.654 1.029-1.248 1.029-2.166 0-.733-.119-1.253-.86-2.077M135.595.046l-.598-.024h-.6l-.046.005v20.518a9.617 9.617 0 0 1-8.77-7.598 3.666 3.666 0 0 1-.055-.473c0-1.043.831-1.895 1.872-1.926h6.236V.106c-5.395.668-9.573 5.266-9.573 10.84 0 5.843 4.578 10.607 10.337 10.914l.599.026h.598l.047-.006V1.36a9.617 9.617 0 0 1 8.768 7.6c.002.005.056.315.056.473a1.93 1.93 0 0 1-1.874 1.926h-6.234v10.443c5.395-.669 9.574-5.268 9.574-10.841 0-5.844-4.58-10.606-10.337-10.915" mask="url(#b)"/>
        </g>
    </g>
</svg>
